<?xml version="1.0" encoding="UTF-8"?>
<svg xmlns="http://www.w3.org/2000/svg" xmlns:xlink="http://www.w3.org/1999/xlink" width="128px" height="128px" viewBox="0 0 128 128" version="1.1">
<defs>
<filter id="alpha" filterUnits="objectBoundingBox" x="0%" y="0%" width="100%" height="100%">
  <feColorMatrix type="matrix" in="SourceGraphic" values="0 0 0 0 1 0 0 0 0 1 0 0 0 0 1 0 0 0 1 0"/>
</filter>
<mask id="mask0">
  <g filter="url(#alpha)">
<rect x="0" y="0" width="128" height="128" style="fill:rgb(0%,0%,0%);fill-opacity:0.937255;stroke:none;"/>
  </g>
</mask>
<clipPath id="clip1">
  <rect x="0" y="0" width="128" height="128"/>
</clipPath>
<g id="surface5" clip-path="url(#clip1)">
<path style=" stroke:none;fill-rule:evenodd;fill:rgb(20.392157%,94.117647%,4.705882%);fill-opacity:1;" d="M 54.3125 60.6875 C 54.335938 60.992188 54.253906 61.261719 54.0625 61.5 C 45.554688 65.242188 37.949219 70.304688 31.25 76.6875 C 29.027344 79.378906 27.320312 82.378906 26.125 85.6875 C 25.328125 88.59375 24.953125 91.550781 25 94.5625 C 25.289062 95.214844 25.726562 95.339844 26.3125 94.9375 C 27.09375 93.554688 27.945312 92.21875 28.875 90.9375 C 31.03125 88.03125 33.28125 85.199219 35.625 82.4375 C 37.582031 80.398438 39.683594 78.542969 41.9375 76.875 C 48.28125 72.472656 55.15625 69.097656 62.5625 66.75 C 64.535156 66.191406 66.535156 65.753906 68.5625 65.4375 C 69.441406 65.46875 69.691406 65.863281 69.3125 66.625 C 62.945312 68.101562 57.359375 71.015625 52.5625 75.375 C 44.535156 82.652344 39.097656 91.546875 36.25 102.0625 C 35.808594 103.800781 35.683594 105.550781 35.875 107.3125 C 36.367188 108.070312 37.015625 108.675781 37.8125 109.125 C 40.859375 110.632812 44.070312 111.65625 47.4375 112.1875 C 50.085938 112.695312 52.753906 113.007812 55.4375 113.125 C 56.300781 112.796875 57.175781 112.507812 58.0625 112.25 C 60.050781 112.226562 62.007812 111.976562 63.9375 111.5 C 68.863281 110.101562 73.402344 107.933594 77.5625 105 C 84.792969 99.8125 90.769531 93.457031 95.5 85.9375 C 97.351562 82.859375 98.683594 79.566406 99.5 76.0625 C 100.214844 72.078125 99.945312 68.160156 98.6875 64.3125 C 98.101562 63.910156 97.664062 64.035156 97.375 64.6875 C 96.398438 69.003906 95.191406 73.253906 93.75 77.4375 C 91.671875 83.203125 88.234375 87.972656 83.4375 91.75 C 82.125 92.675781 80.75 93.511719 79.3125 94.25 C 78.570312 94.582031 77.800781 94.808594 77 94.9375 C 76.046875 94.90625 75.753906 94.445312 76.125 93.5625 C 81.605469 91.207031 85.191406 87.164062 86.875 81.4375 C 88.136719 76.855469 88.886719 72.1875 89.125 67.4375 C 89.453125 63.144531 89.453125 58.851562 89.125 54.5625 C 89.085938 54.460938 89.023438 54.378906 88.9375 54.3125 C 85.371094 52.847656 81.664062 51.953125 77.8125 51.625 C 76.398438 51.460938 74.984375 51.335938 73.5625 51.25 C 68.9375 51.117188 64.3125 51.035156 59.6875 51 C 55.785156 50.515625 51.871094 50.308594 47.9375 50.375 C 46.851562 50.230469 45.765625 50.066406 44.6875 49.875 C 43.769531 49.847656 42.851562 49.847656 41.9375 49.875 C 41.578125 49.820312 41.246094 49.695312 40.9375 49.5 C 40.34375 48.75 39.632812 48.625 38.8125 49.125 C 37.042969 50.433594 35.941406 52.164062 35.5 54.3125 C 35.203125 56.261719 34.996094 58.21875 34.875 60.1875 C 34.699219 61.035156 34.222656 61.304688 33.4375 61 C 32.453125 58.492188 31.847656 55.886719 31.625 53.1875 C 31.300781 50.585938 31.402344 48.003906 31.9375 45.4375 C 31.875 43.453125 32.3125 41.578125 33.25 39.8125 C 36.351562 33.632812 40.414062 28.152344 45.4375 23.375 C 48.457031 20.375 51.75 17.726562 55.3125 15.4375 C 55.714844 14.851562 55.589844 14.414062 54.9375 14.125 C 53.042969 13.691406 51.128906 13.417969 49.1875 13.3125 C 45.777344 13.601562 42.378906 14.019531 39 14.5625 C 38 14.5 37.726562 14.019531 38.1875 13.125 C 41.050781 11.960938 44.007812 11.128906 47.0625 10.625 C 48.683594 10.339844 50.308594 10.089844 51.9375 9.875 C 56.140625 9.492188 60.351562 9.160156 64.5625 8.875 C 71.847656 8.453125 78.972656 9.328125 85.9375 11.5 C 91.96875 13.398438 97.84375 15.691406 103.5625 18.375 C 104.019531 23.132812 102.433594 27.089844 98.8125 30.25 C 94.019531 33.648438 88.851562 36.398438 83.3125 38.5 C 82.355469 38.605469 82.042969 38.210938 82.375 37.3125 C 83.707031 35.894531 85.042969 34.480469 86.375 33.0625 C 87.324219 32.015625 87.847656 30.789062 87.9375 29.375 C 87.800781 28.359375 87.695312 27.335938 87.625 26.3125 C 87.484375 25.089844 86.921875 24.109375 85.9375 23.375 C 84.703125 22.359375 83.328125 21.570312 81.8125 21 C 78.835938 20.089844 75.835938 19.253906 72.8125 18.5 C 71.195312 18.167969 69.570312 17.875 67.9375 17.625 C 66.480469 17.542969 65.019531 17.542969 63.5625 17.625 C 57.089844 19.765625 51.902344 23.617188 48 29.1875 C 46.554688 31.304688 45.96875 33.636719 46.25 36.1875 C 46.464844 36.777344 46.863281 36.945312 47.4375 36.6875 C 48.339844 34.839844 49.277344 33.003906 50.25 31.1875 C 51.730469 29.042969 53.542969 27.230469 55.6875 25.75 C 57.492188 24.515625 59.410156 23.472656 61.4375 22.625 C 62.53125 22.382812 62.925781 22.777344 62.625 23.8125 C 60.832031 25.4375 59.042969 27.0625 57.25 28.6875 C 56.875 29.144531 56.5 29.605469 56.125 30.0625 C 54.898438 32.652344 54.898438 35.238281 56.125 37.8125 C 56.394531 38.246094 56.707031 38.644531 57.0625 39 C 58.292969 39.3125 59.542969 39.519531 60.8125 39.625 C 69.289062 40.007812 77.746094 40.632812 86.1875 41.5 C 89.488281 41.8125 92.738281 42.398438 95.9375 43.25 C 96.785156 43.570312 97.574219 43.984375 98.3125 44.5 C 99.949219 44.972656 101.40625 45.765625 102.6875 46.875 C 104.292969 48.269531 105.5625 49.917969 106.5 51.8125 C 106.820312 52.617188 107.027344 53.453125 107.125 54.3125 C 107.1875 54.457031 107.292969 54.5625 107.4375 54.625 C 108.113281 54.710938 108.777344 54.667969 109.4375 54.5 C 109.832031 54.375 110.144531 54.148438 110.375 53.8125 C 110.695312 53.257812 110.945312 52.675781 111.125 52.0625 C 111.605469 50.25 111.980469 48.417969 112.25 46.5625 C 112.75 45.730469 113.25 45.730469 113.75 46.5625 C 115.132812 51.78125 114.757812 56.863281 112.625 61.8125 C 111.625 63.730469 110.625 65.644531 109.625 67.5625 C 109.578125 72.785156 108.414062 77.746094 106.125 82.4375 C 102.347656 90.007812 97.285156 96.613281 90.9375 102.25 C 85.195312 107.476562 78.902344 111.933594 72.0625 115.625 C 70.316406 116.5625 68.523438 117.394531 66.6875 118.125 C 62.996094 119.257812 59.328125 120.464844 55.6875 121.75 C 51.335938 122.527344 46.960938 122.695312 42.5625 122.25 C 40.527344 121.949219 38.484375 121.699219 36.4375 121.5 C 35.214844 121.179688 34.050781 120.722656 32.9375 120.125 C 28.578125 117.316406 24.703125 113.917969 21.3125 109.9375 C 20.933594 109.757812 20.578125 109.800781 20.25 110.0625 C 20.066406 110.503906 19.941406 110.960938 19.875 111.4375 C 19.792969 112.480469 19.792969 113.519531 19.875 114.5625 C 20.0625 115.472656 20.144531 116.390625 20.125 117.3125 C 19.839844 117.816406 19.441406 117.921875 18.9375 117.625 C 14.691406 109.761719 12.917969 101.367188 13.625 92.4375 C 13.785156 92.160156 13.910156 91.867188 14 91.5625 C 14.5625 86.894531 16.4375 82.851562 19.625 79.4375 C 27.277344 71.617188 36.296875 65.890625 46.6875 62.25 C 48.953125 61.472656 51.246094 60.785156 53.5625 60.1875 C 53.90625 60.234375 54.15625 60.398438 54.3125 60.6875 Z M 54.3125 60.6875 "/>
</g>
<mask id="mask1">
  <g filter="url(#alpha)">
<rect x="0" y="0" width="128" height="128" style="fill:rgb(0%,0%,0%);fill-opacity:0.992157;stroke:none;"/>
  </g>
</mask>
<clipPath id="clip2">
  <rect x="0" y="0" width="128" height="128"/>
</clipPath>
<g id="surface8" clip-path="url(#clip2)">
<path style=" stroke:none;fill-rule:evenodd;fill:rgb(0%,0%,0%);fill-opacity:1;" d="M 46.1875 37.3125 C 46.390625 37.394531 46.621094 37.4375 46.875 37.4375 C 47.234375 37.460938 47.546875 37.378906 47.8125 37.1875 C 47.984375 37.054688 48.132812 36.886719 48.25 36.6875 C 49.058594 34.902344 49.933594 33.152344 50.875 31.4375 C 52.230469 29.417969 53.917969 27.730469 55.9375 26.375 C 57.457031 25.359375 59.039062 24.441406 60.6875 23.625 C 61.128906 23.410156 61.585938 23.324219 62.0625 23.375 C 60.941406 24.476562 59.777344 25.515625 58.5625 26.5 C 57.621094 27.398438 56.726562 28.335938 55.875 29.3125 C 54.734375 31.238281 54.316406 33.320312 54.625 35.5625 C 54.914062 37.058594 55.558594 38.371094 56.5625 39.5 C 58.429688 40.097656 60.347656 40.367188 62.3125 40.3125 C 71.476562 40.875 80.644531 41.644531 89.8125 42.625 C 92.027344 42.929688 94.191406 43.429688 96.3125 44.125 C 97.589844 44.871094 98.921875 45.496094 100.3125 46 C 103.023438 47.613281 104.960938 49.882812 106.125 52.8125 C 106.230469 53.402344 106.332031 53.984375 106.4375 54.5625 C 106.269531 54.730469 106.269531 54.894531 106.4375 55.0625 C 109.167969 55.976562 110.941406 55.0625 111.75 52.3125 C 112.21875 50.488281 112.636719 48.65625 113 46.8125 C 113.175781 47.050781 113.28125 47.320312 113.3125 47.625 C 114.238281 52.074219 113.925781 56.425781 112.375 60.6875 C 111.25 62.9375 110.125 65.1875 109 67.4375 C 108.8125 73.769531 107.144531 79.6875 104 85.1875 C 100.542969 91.191406 96.230469 96.546875 91.0625 101.25 C 84.109375 107.707031 76.316406 112.957031 67.6875 117 C 63.71875 118.308594 59.761719 119.640625 55.8125 121 C 52.140625 121.738281 48.429688 121.988281 44.6875 121.75 C 42.105469 121.4375 39.523438 121.144531 36.9375 120.875 C 35.609375 120.628906 34.359375 120.167969 33.1875 119.5 C 29.546875 117.152344 26.234375 114.382812 23.25 111.1875 C 22.5 110.210938 21.6875 109.292969 20.8125 108.4375 C 20.769531 108.269531 20.730469 108.269531 20.6875 108.4375 C 20.5625 108.414062 20.480469 108.457031 20.4375 108.5625 C 19.605469 109.511719 19.167969 110.636719 19.125 111.9375 C 19.152344 113.609375 19.238281 115.273438 19.375 116.9375 C 15.382812 109.445312 13.675781 101.445312 14.25 92.9375 C 14.84375 90.917969 15.34375 88.878906 15.75 86.8125 C 16.863281 84.042969 18.445312 81.585938 20.5 79.4375 C 29.738281 70.265625 40.714844 64.117188 53.4375 61 C 46.203125 64.300781 39.578125 68.507812 33.5625 73.625 C 26.570312 79.71875 23.550781 87.40625 24.5 96.6875 C 24.527344 97.101562 24.628906 97.476562 24.8125 97.8125 C 24.8125 97.894531 24.855469 97.9375 24.9375 97.9375 C 25.105469 98.105469 25.269531 98.105469 25.4375 97.9375 C 26.453125 95.90625 27.601562 93.945312 28.875 92.0625 C 30.535156 89.777344 32.242188 87.527344 34 85.3125 C 38.167969 80.351562 43.105469 76.375 48.8125 73.375 C 54.5 70.132812 60.542969 67.796875 66.9375 66.375 C 67.390625 66.238281 67.847656 66.195312 68.3125 66.25 C 63.820312 67.351562 59.695312 69.226562 55.9375 71.875 C 46.378906 79.0625 39.777344 88.375 36.125 99.8125 C 35.382812 102.175781 35.050781 104.59375 35.125 107.0625 C 35.371094 107.765625 35.765625 108.371094 36.3125 108.875 C 38.484375 110.355469 40.859375 111.398438 43.4375 112 C 47.457031 113.046875 51.542969 113.628906 55.6875 113.75 C 57.605469 112.953125 59.605469 112.578125 61.6875 112.625 C 66.804688 111.605469 71.554688 109.691406 75.9375 106.875 C 84.769531 101.128906 91.789062 93.691406 97 84.5625 C 100.199219 79.066406 101.242188 73.191406 100.125 66.9375 C 99.707031 64.824219 98.933594 62.867188 97.8125 61.0625 C 97.722656 60.949219 97.597656 60.90625 97.4375 60.9375 C 96.382812 66.320312 94.984375 71.609375 93.25 76.8125 C 91.015625 83.4375 86.992188 88.667969 81.1875 92.5 C 80.054688 93.210938 78.847656 93.753906 77.5625 94.125 C 77.269531 94.207031 76.980469 94.207031 76.6875 94.125 C 76.757812 94.007812 76.839844 93.90625 76.9375 93.8125 C 82.441406 91.328125 86.003906 87.160156 87.625 81.3125 C 88.875 76.515625 89.625 71.640625 89.875 66.6875 C 90.085938 62.8125 90.085938 58.9375 89.875 55.0625 C 89.847656 54.648438 89.746094 54.273438 89.5625 53.9375 C 88.1875 53.195312 86.730469 52.632812 85.1875 52.25 C 81.570312 51.382812 77.902344 50.839844 74.1875 50.625 C 69.730469 50.488281 65.273438 50.40625 60.8125 50.375 C 56.828125 49.902344 52.828125 49.695312 48.8125 49.75 C 46.457031 49.324219 44.082031 49.117188 41.6875 49.125 C 41.308594 48.9375 40.976562 48.6875 40.6875 48.375 C 40.171875 48.019531 39.628906 47.976562 39.0625 48.25 C 36.714844 49.675781 35.277344 51.738281 34.75 54.4375 C 34.53125 56.222656 34.367188 58.015625 34.25 59.8125 C 34.183594 60.078125 34.078125 60.328125 33.9375 60.5625 C 32.527344 56.515625 31.964844 52.347656 32.25 48.0625 C 32.429688 46.09375 32.679688 44.136719 33 42.1875 C 34.664062 38.238281 36.789062 34.570312 39.375 31.1875 C 44.480469 24.683594 50.503906 19.226562 57.4375 14.8125 C 57.636719 14.75 57.699219 14.625 57.625 14.4375 C 57.28125 14.234375 56.925781 14.046875 56.5625 13.875 C 53.359375 12.839844 50.109375 12.527344 46.8125 12.9375 C 46.410156 12.898438 46.035156 12.941406 45.6875 13.0625 C 45.328125 13.023438 44.992188 13.066406 44.6875 13.1875 C 44.328125 13.148438 43.992188 13.191406 43.6875 13.3125 C 42.019531 13.5 40.355469 13.644531 38.6875 13.75 C 38.820312 13.578125 38.984375 13.453125 39.1875 13.375 C 43.828125 11.863281 48.578125 10.863281 53.4375 10.375 C 58.019531 10.035156 62.601562 9.722656 67.1875 9.4375 C 74.878906 9.425781 82.335938 10.738281 89.5625 13.375 C 94.105469 14.980469 98.5625 16.792969 102.9375 18.8125 C 103.1875 24.082031 101.105469 28.144531 96.6875 31 C 92.363281 33.652344 87.84375 35.921875 83.125 37.8125 C 83.0625 37.792969 83 37.769531 82.9375 37.75 C 83.082031 37.519531 83.230469 37.292969 83.375 37.0625 C 84.628906 35.851562 85.835938 34.601562 87 33.3125 C 87.976562 32.15625 88.496094 30.824219 88.5625 29.3125 C 88.488281 28.183594 88.386719 27.058594 88.25 25.9375 C 88.105469 25.273438 87.855469 24.648438 87.5 24.0625 C 85.25 21.71875 82.519531 20.195312 79.3125 19.5 C 76.042969 18.609375 72.753906 17.820312 69.4375 17.125 C 67.1875 16.878906 64.9375 16.878906 62.6875 17.125 C 57.246094 19.167969 52.640625 22.398438 48.875 26.8125 C 47.507812 28.546875 46.464844 30.460938 45.75 32.5625 C 45.316406 34.082031 45.359375 35.582031 45.875 37.0625 C 45.964844 37.171875 46.066406 37.257812 46.1875 37.3125 Z M 46.1875 37.3125 "/>
</g>
<mask id="mask2">
  <g filter="url(#alpha)">
<rect x="0" y="0" width="128" height="128" style="fill:rgb(0%,0%,0%);fill-opacity:0.0627451;stroke:none;"/>
  </g>
</mask>
<clipPath id="clip3">
  <rect x="0" y="0" width="128" height="128"/>
</clipPath>
<g id="surface11" clip-path="url(#clip3)">
<path style=" stroke:none;fill-rule:evenodd;fill:rgb(0%,0%,0%);fill-opacity:1;" d="M 54.3125 60.6875 C 54.605469 60.476562 54.941406 60.414062 55.3125 60.5 C 54.984375 60.601562 54.652344 60.664062 54.3125 60.6875 Z M 54.3125 60.6875 "/>
</g>
</defs>
<g id="surface1">
<use xlink:href="#surface5" mask="url(#mask0)"/>
<use xlink:href="#surface8" mask="url(#mask1)"/>
<use xlink:href="#surface11" mask="url(#mask2)"/>
</g>
</svg>
